<?xml version="1.0" encoding="UTF-8" standalone="no"?>
<!-- Created with Inkscape (http://www.inkscape.org/) -->

<svg
        xmlns:dc="http://purl.org/dc/elements/1.1/"
        xmlns:cc="http://creativecommons.org/ns#"
        xmlns:rdf="http://www.w3.org/1999/02/22-rdf-syntax-ns#"
        xmlns="http://www.w3.org/2000/svg"
        xmlns:sodipodi="http://sodipodi.sourceforge.net/DTD/sodipodi-0.dtd"
        xmlns:inkscape="http://www.inkscape.org/namespaces/inkscape"
        width="400"
        height="400"
        viewBox="0 0 399.99998 400.00001"
        id="svg2"
        version="1.1"
        inkscape:version="0.91 r13725"
        sodipodi:docname="chicara_cafe.svg">
  <defs
     id="defs4" />
  <sodipodi:namedview
     id="base"
     pagecolor="#ffffff"
     bordercolor="#666666"
     borderopacity="1.0"
     inkscape:pageopacity="0.0"
     inkscape:pageshadow="2"
     inkscape:zoom="0.53557814"
     inkscape:cx="354.35175"
     inkscape:cy="222.99416"
     inkscape:document-units="px"
     inkscape:current-layer="layer1"
     showgrid="false"
     units="px"
     inkscape:window-width="1360"
     inkscape:window-height="716"
     inkscape:window-x="0"
     inkscape:window-y="0"
     inkscape:window-maximized="1" />
  <metadata
     id="metadata7">
    <rdf:RDF>
      <cc:Work
         rdf:about="">
        <dc:format>image/svg+xml</dc:format>
        <dc:type
           rdf:resource="http://purl.org/dc/dcmitype/StillImage" />
        <dc:title></dc:title>
      </cc:Work>
    </rdf:RDF>
  </metadata>
  <g
     inkscape:label="Camada 1"
     inkscape:groupmode="layer"
     id="layer1"
     transform="translate(0,-652.36216)">
    <rect
       style="opacity:1;fill:#2b1100;fill-opacity:1;fill-rule:nonzero;stroke:none;stroke-width:3.7190001;stroke-linecap:round;stroke-linejoin:bevel;stroke-miterlimit:4;stroke-dasharray:none;stroke-dashoffset:0;stroke-opacity:1"
       id="rect4267"
       width="400"
       height="400"
       x="-1.5258789e-05"
       y="652.36218" />
    <g
       id="g4249"
       transform="translate(-5.0572773,-0.40287029)">
      <ellipse
         ry="63.938393"
         rx="148.27094"
         cy="974.18915"
         cx="197.24879"
         id="path3401"
         style="opacity:1;fill:#d45500;fill-opacity:1;fill-rule:nonzero;stroke:none;stroke-width:2.5;stroke-linecap:round;stroke-linejoin:bevel;stroke-miterlimit:4;stroke-dasharray:none;stroke-dashoffset:0;stroke-opacity:1" />
      <ellipse
         style="opacity:1;fill:#ff6600;fill-opacity:1;fill-rule:nonzero;stroke:none;stroke-width:2.5;stroke-linecap:round;stroke-linejoin:bevel;stroke-miterlimit:4;stroke-dasharray:none;stroke-dashoffset:0;stroke-opacity:1"
         id="ellipse4210"
         cx="197.98782"
         cy="970.9408"
         rx="114.1348"
         ry="47.973381" />
      <path
         inkscape:connector-curvature="0"
         id="path3403"
         d="m 90.690578,866.15572 a 111.34099,102.24632 0 0 0 -6.436893,33.89805 111.34099,102.24632 0 0 0 111.341445,102.24533 111.34099,102.24632 0 0 0 111.34144,-102.24533 111.34099,102.24632 0 0 0 -6.42536,-33.89805 l -209.820632,0 z"
         style="opacity:1;fill:#d45500;fill-opacity:1;fill-rule:nonzero;stroke:none;stroke-width:2.5;stroke-linecap:round;stroke-linejoin:bevel;stroke-miterlimit:4;stroke-dasharray:none;stroke-dashoffset:0;stroke-opacity:1" />
      <path
         inkscape:connector-curvature="0"
         id="path4214"
         d="m 303.02862,886.50092 -23.42514,60.63274 c 0,0 19.7941,7.10854 32.52118,7.16569 25.58594,0.1149 41.52074,-13.63021 47.95271,-39.96134 5.39543,-22.08815 -11.57542,-27.83709 -11.57542,-27.83709 l -45.47333,0 z m -2.90141,10.04627 35.32801,0 c 0,0 13.18406,4.46572 8.99224,21.62621 -4.99691,20.4569 -17.37577,31.13445 -37.2537,31.04517 -9.88778,-0.0444 -25.26559,-5.56512 -25.26559,-5.56512 l 18.19904,-47.10626 z"
         style="fill:#803300;fill-opacity:1;fill-rule:evenodd;stroke:none;stroke-width:1px;stroke-linecap:butt;stroke-linejoin:miter;stroke-opacity:1" />
      <path
         inkscape:connector-curvature="0"
         id="path4219"
         d="m 273.09452,866.15473 a 111.34099,115.07897 0 0 1 5.17994,34.29475 111.34099,115.07897 0 0 1 -53.48088,98.15165 111.34099,102.24632 0 0 0 82.1437,-98.54834 111.34099,102.24632 0 0 0 -6.42536,-33.89806 l -27.4174,0 z"
         style="opacity:1;fill:#803300;fill-opacity:1;fill-rule:nonzero;stroke:none;stroke-width:2.5;stroke-linecap:round;stroke-linejoin:bevel;stroke-miterlimit:4;stroke-dasharray:none;stroke-dashoffset:0;stroke-opacity:1" />
      <ellipse
         ry="43.819851"
         rx="106.38025"
         cy="873.62732"
         cx="195.64259"
         id="path3405"
         style="opacity:1;fill:#ffccaa;fill-opacity:1;fill-rule:nonzero;stroke:none;stroke-width:2.5;stroke-linecap:round;stroke-linejoin:bevel;stroke-miterlimit:4;stroke-dasharray:none;stroke-dashoffset:0;stroke-opacity:1" />
      <path
         sodipodi:nodetypes="cccc"
         inkscape:connector-curvature="0"
         id="path4229"
         d="M 88.112595,883.79327 C 83.034905,930.9742 103.1133,965.95824 146.53906,989.62234 130.03905,966.34071 117.3889,941.70032 125.59373,909.69934 111.62641,905.4848 99.140216,896.82689 88.112595,883.79327 Z"
         style="fill:#ff7f2a;fill-rule:evenodd;stroke:none;stroke-width:1px;stroke-linecap:butt;stroke-linejoin:miter;stroke-opacity:1" />
      <path
         sodipodi:nodetypes="ccccc"
         inkscape:connector-curvature="0"
         id="path4231"
         d="m 97.482877,879.38373 c 22.729783,23.99599 56.640993,30.81785 94.603073,31.418 46.15974,-1.30218 78.3151,-12.30912 101.16506,-29.76442 -23.74054,-24.64769 -56.01363,-36.80149 -98.70433,-37.20553 -45.37212,0.19504 -75.15582,12.49622 -97.063803,35.55195 z"
         style="fill:#552200;fill-rule:evenodd;stroke:none;stroke-width:1px;stroke-linecap:butt;stroke-linejoin:miter;stroke-opacity:1" />
      <path
         transform="matrix(1.7379174,0,0,0.55434011,171.20667,430.27056)"
         d="m 13.862803,807.45245 c -1.754197,0.19859 -1.133153,-2.26664 -0.330067,-2.91559 2.176312,-1.7586 5.186483,0.0779 6.161252,2.25546 1.743634,3.89509 -1.080569,8.1531 -4.840981,9.40691 -5.5185571,1.84002 -11.1706179,-2.08343 -12.6525724,-7.42651 -1.97521233,-7.12147 3.0846264,-14.2076 10.0120304,-15.89823 8.717431,-2.12748 17.254206,4.08459 19.143892,12.59756 2.288662,10.31034 -5.083782,20.30629 -15.183079,22.38955 -11.9016735,2.45504 -23.3618181,-6.08247 -25.6352124,-17.7686 -2.6247236,-13.49211 7.0808326,-26.41963 20.3541284,-28.88088 15.081962,-2.79662 29.479045,8.07897 32.126532,22.93966 2.97008,16.67144 -9.07693,32.53963 -25.525178,35.37219 -18.26067154,3.14468 -35.60109,-10.07478 -38.617851,-28.1107"
         sodipodi:t0="0"
         sodipodi:argument="-15.820691"
         sodipodi:radius="35.21059"
         sodipodi:revolution="3"
         sodipodi:expansion="1"
         sodipodi:cy="807.45245"
         sodipodi:cx="13.862803"
         id="path4233"
         style="fill:none;fill-rule:evenodd;stroke:#9a5805;stroke-width:4.47414494;stroke-linecap:butt;stroke-linejoin:miter;stroke-miterlimit:4;stroke-dasharray:none;stroke-opacity:1"
         sodipodi:type="spiral" />
      <path
         sodipodi:nodetypes="cccccccccc"
         inkscape:connector-curvature="0"
         id="path4235"
         d="m 199.35135,861.13944 c -12.12309,-17.05303 -21.42601,-34.76963 -23.24849,-54.24633 3.91574,-31.96935 21.37451,-37.64932 34.87267,-51.0174 13.94605,-8.6432 23.09263,-17.88632 32.28951,-27.12316 13.10104,-20.06191 14.28978,-40.69107 14.85316,-61.35003 5.77861,11.16777 12.34697,20.91411 12.26998,42.62212 -4.40366,18.8287 -12.52965,30.46889 -22.52429,41.21975 -10.40498,9.33524 -21.49922,18.08576 -42.70051,30.46292 -12.30718,9.32193 -15.96219,23.40262 -16.14475,39.39318 0.26935,14.14005 5.31125,27.08693 10.33272,40.03895 z"
         style="fill:#803300;fill-rule:evenodd;stroke:none;stroke-width:1px;stroke-linecap:butt;stroke-linejoin:miter;stroke-opacity:1" />
      <path
         style="fill:#803300;fill-rule:evenodd;stroke:none;stroke-width:1px;stroke-linecap:butt;stroke-linejoin:miter;stroke-opacity:1"
         d="m 179.69068,830.08777 c -9.89191,-13.9146 -17.48274,-28.37063 -18.96976,-44.26283 3.19508,-26.0857 17.44071,-30.72034 28.45464,-41.62815 11.37941,-7.0525 18.84271,-14.59452 26.34699,-22.1314 10.68991,-16.36972 11.65996,-33.20229 12.11954,-50.05917 4.71517,9.11246 10.07471,17.06508 10.01189,34.77795 -3.59326,15.36345 -10.22373,24.86138 -18.379,33.63364 -8.48991,7.61719 -17.54249,14.75726 -34.84186,24.85652 -10.04223,7.60633 -13.02453,19.09561 -13.17343,32.14325 0.21975,11.53773 4.33376,22.10186 8.43099,32.67019 z"
         id="path4237"
         inkscape:connector-curvature="0"
         sodipodi:nodetypes="cccccccccc" />
      <path
         sodipodi:nodetypes="cccccccccc"
         inkscape:connector-curvature="0"
         id="path4239"
         d="m 162.85125,796.29624 c -7.77811,-10.94134 -13.74698,-22.30841 -14.91629,-34.80477 2.51234,-20.51172 13.71397,-24.15604 22.37452,-32.73307 8.94784,-5.54552 14.81643,-11.47597 20.71715,-17.40238 8.4056,-12.87185 9.16842,-26.10764 9.52987,-39.36255 3.70756,7.16531 7.92194,13.41861 7.87246,27.34662 -2.82548,12.08058 -8.03907,19.549 -14.45168,26.44682 -6.67593,5.98955 -13.79407,11.60393 -27.39686,19.5452 -7.89643,5.981 -10.24155,15.01526 -10.35857,25.27489 0.17275,9.07235 3.40763,17.37914 6.6294,25.68924 z"
         style="fill:#803300;fill-rule:evenodd;stroke:none;stroke-width:1px;stroke-linecap:butt;stroke-linejoin:miter;stroke-opacity:1" />
      <path
         sodipodi:nodetypes="cccccccc"
         inkscape:connector-curvature="0"
         id="path4241"
         d="m 155.16808,827.90143 c -1.94414,-14.34821 -7.36804,-28.04718 -14.13621,-41.49534 -5.65538,-9.75251 -10.81752,-19.68878 -23.43923,-26.84578 -3.9144,-2.68228 -9.88881,-3.80468 -16.72102,-4.27754 -8.512355,3.12163 -10.670046,8.0647 -5.056036,15.23635 4.465216,2.79174 8.203486,4.1971 10.596996,3.03797 9.34212,0.63489 16.55175,5.01332 23.14343,10.47652 14.65531,13.70576 19.76857,28.8415 25.61207,43.86782 z"
         style="fill:#d45500;fill-rule:evenodd;stroke:none;stroke-width:1px;stroke-linecap:butt;stroke-linejoin:miter;stroke-opacity:1" />
      <path
         style="fill:#d45500;fill-rule:evenodd;stroke:none;stroke-width:1px;stroke-linecap:butt;stroke-linejoin:miter;stroke-opacity:1"
         d="m 211.83695,826.10446 c 5.36863,-13.44725 13.95526,-25.42011 23.78518,-36.82339 7.85333,-8.08824 15.27282,-16.47444 29.25418,-20.35394 4.44841,-1.652 10.51657,-1.29074 17.25922,-0.0912 7.50026,5.09442 8.39367,10.41339 1.2068,16.00798 -5.00931,1.62443 -8.97689,2.08044 -11.01748,0.37506 -9.21695,-1.65164 -17.27362,0.84601 -24.99422,4.54593 -17.54368,9.73879 -26.17778,23.18091 -35.49368,36.33952 z"
         id="path4243"
         inkscape:connector-curvature="0"
         sodipodi:nodetypes="cccccccc" />
      <path
         style="fill:#d45500;fill-rule:evenodd;stroke:none;stroke-width:1px;stroke-linecap:butt;stroke-linejoin:miter;stroke-opacity:1"
         d="m 141.93944,765.06542 c -1.94414,-14.3482 -7.36804,-28.04717 -14.13621,-41.49534 -5.65537,-9.7525 -10.81752,-19.68878 -23.43923,-26.84578 -3.9144,-2.68227 -9.888809,-3.80467 -16.72102,-4.27753 -8.512352,3.12162 -10.670043,8.0647 -5.056033,15.23635 4.465217,2.79173 8.203482,4.1971 10.596996,3.03796 9.342117,0.6349 16.551747,5.01332 23.143437,10.47653 14.6553,13.70575 19.76857,28.8415 25.61206,43.86781 z"
         id="path4245"
         inkscape:connector-curvature="0"
         sodipodi:nodetypes="cccccccc" />
      <path
         sodipodi:nodetypes="cccccccc"
         inkscape:connector-curvature="0"
         id="path4247"
         d="m 206.32496,861.38081 c 5.36864,-13.44724 13.95526,-25.4201 23.78518,-36.82338 7.85333,-8.08825 15.27283,-16.47444 29.25418,-20.35394 4.44842,-1.652 10.51657,-1.29074 17.25922,-0.0912 7.50026,5.09442 8.39368,10.41339 1.20681,16.00797 -5.00931,1.62443 -8.97689,2.08045 -11.01748,0.37507 -9.21695,-1.65165 -17.27362,0.846 -24.99423,4.54593 -17.54368,9.73879 -26.17777,23.18091 -35.49368,36.33951 z"
         style="fill:#d45500;fill-rule:evenodd;stroke:none;stroke-width:1px;stroke-linecap:butt;stroke-linejoin:miter;stroke-opacity:1" />
    </g>
  </g>
</svg>
